<mxfile host="app.diagrams.net" agent="Mozilla/5.0 (Windows NT 10.0; Win64; x64) AppleWebKit/537.36 (KHTML, like Gecko) Chrome/128.0.0.0 Safari/537.36" version="24.7.7">
  <diagram name="Halaman-1" id="Wdd0CiwhtJZsaGbnA3u6">
    <mxGraphModel dx="1354" dy="735" grid="1" gridSize="10" guides="1" tooltips="1" connect="1" arrows="1" fold="1" page="1" pageScale="1" pageWidth="827" pageHeight="1169" math="0" shadow="0">
      <root>
        <mxCell id="0" />
        <mxCell id="1" parent="0" />
        <mxCell id="SC1NeL0ob7fLtyRGTfck-1" value="&lt;font style=&quot;font-size: 24px;&quot;&gt;ALUR SISTEM&lt;/font&gt;" style="text;html=1;align=center;verticalAlign=middle;whiteSpace=wrap;rounded=0;" vertex="1" parent="1">
          <mxGeometry x="320" y="20" width="180" height="30" as="geometry" />
        </mxCell>
        <mxCell id="SC1NeL0ob7fLtyRGTfck-15" style="edgeStyle=orthogonalEdgeStyle;rounded=0;orthogonalLoop=1;jettySize=auto;html=1;entryX=0.5;entryY=0;entryDx=0;entryDy=0;" edge="1" parent="1" source="SC1NeL0ob7fLtyRGTfck-2" target="SC1NeL0ob7fLtyRGTfck-22">
          <mxGeometry relative="1" as="geometry">
            <mxPoint x="399.5882352941178" y="180.07038925506788" as="targetPoint" />
          </mxGeometry>
        </mxCell>
        <mxCell id="SC1NeL0ob7fLtyRGTfck-2" value="MULAI" style="ellipse;whiteSpace=wrap;html=1;" vertex="1" parent="1">
          <mxGeometry x="330" y="70" width="139" height="60" as="geometry" />
        </mxCell>
        <mxCell id="SC1NeL0ob7fLtyRGTfck-16" style="edgeStyle=orthogonalEdgeStyle;rounded=0;orthogonalLoop=1;jettySize=auto;html=1;entryX=0.5;entryY=0;entryDx=0;entryDy=0;exitX=0.5;exitY=1;exitDx=0;exitDy=0;" edge="1" parent="1" source="SC1NeL0ob7fLtyRGTfck-22" target="SC1NeL0ob7fLtyRGTfck-4">
          <mxGeometry relative="1" as="geometry">
            <mxPoint x="399.5882352941178" y="279.929610744932" as="sourcePoint" />
          </mxGeometry>
        </mxCell>
        <mxCell id="SC1NeL0ob7fLtyRGTfck-51" style="edgeStyle=orthogonalEdgeStyle;rounded=0;orthogonalLoop=1;jettySize=auto;html=1;" edge="1" parent="1" source="SC1NeL0ob7fLtyRGTfck-4" target="SC1NeL0ob7fLtyRGTfck-6">
          <mxGeometry relative="1" as="geometry" />
        </mxCell>
        <mxCell id="SC1NeL0ob7fLtyRGTfck-52" style="edgeStyle=orthogonalEdgeStyle;rounded=0;orthogonalLoop=1;jettySize=auto;html=1;entryX=0;entryY=0.5;entryDx=0;entryDy=0;" edge="1" parent="1" source="SC1NeL0ob7fLtyRGTfck-4" target="SC1NeL0ob7fLtyRGTfck-39">
          <mxGeometry relative="1" as="geometry" />
        </mxCell>
        <mxCell id="SC1NeL0ob7fLtyRGTfck-54" style="edgeStyle=orthogonalEdgeStyle;rounded=0;orthogonalLoop=1;jettySize=auto;html=1;entryX=0.5;entryY=0;entryDx=0;entryDy=0;" edge="1" parent="1" source="SC1NeL0ob7fLtyRGTfck-4" target="SC1NeL0ob7fLtyRGTfck-27">
          <mxGeometry relative="1" as="geometry" />
        </mxCell>
        <mxCell id="SC1NeL0ob7fLtyRGTfck-4" value="DASBOR MENU" style="rhombus;whiteSpace=wrap;html=1;" vertex="1" parent="1">
          <mxGeometry x="340.37" y="270" width="118.25" height="110" as="geometry" />
        </mxCell>
        <mxCell id="SC1NeL0ob7fLtyRGTfck-79" style="edgeStyle=orthogonalEdgeStyle;rounded=0;orthogonalLoop=1;jettySize=auto;html=1;entryX=0.5;entryY=0;entryDx=0;entryDy=0;" edge="1" parent="1" source="SC1NeL0ob7fLtyRGTfck-6" target="SC1NeL0ob7fLtyRGTfck-78">
          <mxGeometry relative="1" as="geometry" />
        </mxCell>
        <mxCell id="SC1NeL0ob7fLtyRGTfck-6" value="&lt;div&gt;SALDO&lt;/div&gt;" style="shape=manualInput;whiteSpace=wrap;html=1;" vertex="1" parent="1">
          <mxGeometry x="40" y="285" width="120" height="80" as="geometry" />
        </mxCell>
        <mxCell id="SC1NeL0ob7fLtyRGTfck-8" style="edgeStyle=orthogonalEdgeStyle;rounded=0;orthogonalLoop=1;jettySize=auto;html=1;exitX=0.5;exitY=1;exitDx=0;exitDy=0;" edge="1" parent="1">
          <mxGeometry relative="1" as="geometry">
            <mxPoint x="700" y="550" as="sourcePoint" />
            <mxPoint x="700" y="550" as="targetPoint" />
          </mxGeometry>
        </mxCell>
        <mxCell id="SC1NeL0ob7fLtyRGTfck-22" value="LOGIN" style="shape=parallelogram;perimeter=parallelogramPerimeter;whiteSpace=wrap;html=1;fixedSize=1;" vertex="1" parent="1">
          <mxGeometry x="340.5" y="170" width="120" height="60" as="geometry" />
        </mxCell>
        <mxCell id="SC1NeL0ob7fLtyRGTfck-57" style="edgeStyle=orthogonalEdgeStyle;rounded=0;orthogonalLoop=1;jettySize=auto;html=1;" edge="1" parent="1" source="SC1NeL0ob7fLtyRGTfck-27" target="SC1NeL0ob7fLtyRGTfck-30">
          <mxGeometry relative="1" as="geometry" />
        </mxCell>
        <mxCell id="SC1NeL0ob7fLtyRGTfck-27" value="TABUNGAN" style="rhombus;whiteSpace=wrap;html=1;" vertex="1" parent="1">
          <mxGeometry x="338.62" y="420" width="120" height="110" as="geometry" />
        </mxCell>
        <mxCell id="SC1NeL0ob7fLtyRGTfck-81" style="edgeStyle=orthogonalEdgeStyle;rounded=0;orthogonalLoop=1;jettySize=auto;html=1;entryX=0.5;entryY=0;entryDx=0;entryDy=0;" edge="1" parent="1" source="SC1NeL0ob7fLtyRGTfck-28" target="SC1NeL0ob7fLtyRGTfck-74">
          <mxGeometry relative="1" as="geometry" />
        </mxCell>
        <mxCell id="SC1NeL0ob7fLtyRGTfck-28" value="SETORAN" style="shape=manualInput;whiteSpace=wrap;html=1;" vertex="1" parent="1">
          <mxGeometry x="170" y="560" width="120" height="80" as="geometry" />
        </mxCell>
        <mxCell id="SC1NeL0ob7fLtyRGTfck-82" style="edgeStyle=orthogonalEdgeStyle;rounded=0;orthogonalLoop=1;jettySize=auto;html=1;entryX=0.5;entryY=0;entryDx=0;entryDy=0;" edge="1" parent="1" source="SC1NeL0ob7fLtyRGTfck-29" target="SC1NeL0ob7fLtyRGTfck-75">
          <mxGeometry relative="1" as="geometry" />
        </mxCell>
        <mxCell id="SC1NeL0ob7fLtyRGTfck-29" value="PENARIKAN" style="shape=manualInput;whiteSpace=wrap;html=1;" vertex="1" parent="1">
          <mxGeometry x="340.5" y="560" width="120" height="80" as="geometry" />
        </mxCell>
        <mxCell id="SC1NeL0ob7fLtyRGTfck-83" style="edgeStyle=orthogonalEdgeStyle;rounded=0;orthogonalLoop=1;jettySize=auto;html=1;entryX=0.5;entryY=0;entryDx=0;entryDy=0;" edge="1" parent="1" source="SC1NeL0ob7fLtyRGTfck-30" target="SC1NeL0ob7fLtyRGTfck-76">
          <mxGeometry relative="1" as="geometry" />
        </mxCell>
        <mxCell id="SC1NeL0ob7fLtyRGTfck-30" value="JUMLAH&amp;nbsp;" style="shape=manualInput;whiteSpace=wrap;html=1;" vertex="1" parent="1">
          <mxGeometry x="500" y="560" width="120" height="80" as="geometry" />
        </mxCell>
        <mxCell id="SC1NeL0ob7fLtyRGTfck-31" style="edgeStyle=orthogonalEdgeStyle;rounded=0;orthogonalLoop=1;jettySize=auto;html=1;entryX=0.4;entryY=0.225;entryDx=0;entryDy=0;entryPerimeter=0;" edge="1" parent="1" source="SC1NeL0ob7fLtyRGTfck-27" target="SC1NeL0ob7fLtyRGTfck-28">
          <mxGeometry relative="1" as="geometry" />
        </mxCell>
        <mxCell id="SC1NeL0ob7fLtyRGTfck-39" value="SISWA" style="rhombus;whiteSpace=wrap;html=1;" vertex="1" parent="1">
          <mxGeometry x="660" y="270" width="120" height="110" as="geometry" />
        </mxCell>
        <mxCell id="SC1NeL0ob7fLtyRGTfck-80" style="edgeStyle=orthogonalEdgeStyle;rounded=0;orthogonalLoop=1;jettySize=auto;html=1;entryX=0.5;entryY=0;entryDx=0;entryDy=0;" edge="1" parent="1" source="SC1NeL0ob7fLtyRGTfck-40" target="SC1NeL0ob7fLtyRGTfck-77">
          <mxGeometry relative="1" as="geometry" />
        </mxCell>
        <mxCell id="SC1NeL0ob7fLtyRGTfck-40" value="&lt;div&gt;&lt;br&gt;&lt;/div&gt;DATA&lt;div&gt;SISWA&lt;/div&gt;" style="shape=manualInput;whiteSpace=wrap;html=1;" vertex="1" parent="1">
          <mxGeometry x="670" y="435" width="120" height="80" as="geometry" />
        </mxCell>
        <mxCell id="SC1NeL0ob7fLtyRGTfck-41" style="edgeStyle=orthogonalEdgeStyle;rounded=0;orthogonalLoop=1;jettySize=auto;html=1;entryX=0.418;entryY=0.248;entryDx=0;entryDy=0;entryPerimeter=0;" edge="1" parent="1" source="SC1NeL0ob7fLtyRGTfck-39" target="SC1NeL0ob7fLtyRGTfck-40">
          <mxGeometry relative="1" as="geometry" />
        </mxCell>
        <mxCell id="SC1NeL0ob7fLtyRGTfck-42" value="SELESAII" style="ellipse;whiteSpace=wrap;html=1;" vertex="1" parent="1">
          <mxGeometry x="330" y="980" width="139" height="60" as="geometry" />
        </mxCell>
        <mxCell id="SC1NeL0ob7fLtyRGTfck-63" style="edgeStyle=orthogonalEdgeStyle;rounded=0;orthogonalLoop=1;jettySize=auto;html=1;entryX=0.488;entryY=0.181;entryDx=0;entryDy=0;entryPerimeter=0;" edge="1" parent="1" source="SC1NeL0ob7fLtyRGTfck-27" target="SC1NeL0ob7fLtyRGTfck-29">
          <mxGeometry relative="1" as="geometry" />
        </mxCell>
        <mxCell id="SC1NeL0ob7fLtyRGTfck-66" value="DATA&lt;div&gt;BASE&lt;/div&gt;" style="shape=cylinder3;whiteSpace=wrap;html=1;boundedLbl=1;backgroundOutline=1;size=15;" vertex="1" parent="1">
          <mxGeometry x="360.5" y="820" width="80" height="100" as="geometry" />
        </mxCell>
        <mxCell id="SC1NeL0ob7fLtyRGTfck-74" value="SETORAN" style="rounded=0;whiteSpace=wrap;html=1;" vertex="1" parent="1">
          <mxGeometry x="170" y="710" width="120" height="60" as="geometry" />
        </mxCell>
        <mxCell id="SC1NeL0ob7fLtyRGTfck-75" value="PENARIKAN" style="rounded=0;whiteSpace=wrap;html=1;" vertex="1" parent="1">
          <mxGeometry x="340.5" y="710" width="120" height="60" as="geometry" />
        </mxCell>
        <mxCell id="SC1NeL0ob7fLtyRGTfck-76" value="JUMLAH" style="rounded=0;whiteSpace=wrap;html=1;" vertex="1" parent="1">
          <mxGeometry x="500" y="710" width="120" height="60" as="geometry" />
        </mxCell>
        <mxCell id="SC1NeL0ob7fLtyRGTfck-77" value="DATA SISWA" style="rounded=0;whiteSpace=wrap;html=1;" vertex="1" parent="1">
          <mxGeometry x="670" y="570" width="120" height="60" as="geometry" />
        </mxCell>
        <mxCell id="SC1NeL0ob7fLtyRGTfck-78" value="SALDO" style="rounded=0;whiteSpace=wrap;html=1;" vertex="1" parent="1">
          <mxGeometry x="40" y="445" width="120" height="60" as="geometry" />
        </mxCell>
        <mxCell id="SC1NeL0ob7fLtyRGTfck-91" style="edgeStyle=orthogonalEdgeStyle;rounded=0;orthogonalLoop=1;jettySize=auto;html=1;entryX=0;entryY=0;entryDx=0;entryDy=32.5;entryPerimeter=0;" edge="1" parent="1" source="SC1NeL0ob7fLtyRGTfck-74" target="SC1NeL0ob7fLtyRGTfck-66">
          <mxGeometry relative="1" as="geometry">
            <Array as="points">
              <mxPoint x="230" y="853" />
              <mxPoint x="332" y="853" />
            </Array>
          </mxGeometry>
        </mxCell>
        <mxCell id="SC1NeL0ob7fLtyRGTfck-93" style="edgeStyle=orthogonalEdgeStyle;rounded=0;orthogonalLoop=1;jettySize=auto;html=1;entryX=1;entryY=0;entryDx=0;entryDy=32.5;entryPerimeter=0;" edge="1" parent="1" source="SC1NeL0ob7fLtyRGTfck-76" target="SC1NeL0ob7fLtyRGTfck-66">
          <mxGeometry relative="1" as="geometry">
            <Array as="points">
              <mxPoint x="560" y="853" />
              <mxPoint x="477" y="853" />
            </Array>
          </mxGeometry>
        </mxCell>
        <mxCell id="SC1NeL0ob7fLtyRGTfck-99" style="edgeStyle=orthogonalEdgeStyle;rounded=0;orthogonalLoop=1;jettySize=auto;html=1;entryX=0;entryY=0;entryDx=0;entryDy=67.5;entryPerimeter=0;" edge="1" parent="1" source="SC1NeL0ob7fLtyRGTfck-78" target="SC1NeL0ob7fLtyRGTfck-66">
          <mxGeometry relative="1" as="geometry">
            <Array as="points">
              <mxPoint x="100" y="888" />
            </Array>
          </mxGeometry>
        </mxCell>
        <mxCell id="SC1NeL0ob7fLtyRGTfck-100" style="edgeStyle=orthogonalEdgeStyle;rounded=0;orthogonalLoop=1;jettySize=auto;html=1;entryX=1;entryY=0;entryDx=0;entryDy=67.5;entryPerimeter=0;" edge="1" parent="1" source="SC1NeL0ob7fLtyRGTfck-77" target="SC1NeL0ob7fLtyRGTfck-66">
          <mxGeometry relative="1" as="geometry">
            <Array as="points">
              <mxPoint x="730" y="888" />
            </Array>
          </mxGeometry>
        </mxCell>
      </root>
    </mxGraphModel>
  </diagram>
</mxfile>
